<svg xmlns="http://www.w3.org/2000/svg" width="285.116" height="142.061" viewBox="0 0 75.437 37.587"><rect width="32.208" height="25.562" x="21.622" y="1.191" rx="1.874" fill="#f8f8f8" stroke="#ff8904" stroke-width="2.381" paint-order="stroke fill markers"/><rect width="29.369" height="22.49" x="23.042" y="2.727" rx=".966" fill="#c8c8c8" paint-order="stroke fill markers"/><g fill="#fef3c6"><rect width="13.371" height="20.989" x="38.349" y="3.478" rx=".423" paint-order="stroke fill markers"/><rect width="13.371" height="20.989" x="23.732" y="3.478" rx=".423" paint-order="stroke fill markers"/></g><g fill="#ff8904"><use href="#B" paint-order="stroke fill markers"/><circle cx="30.417" cy="13.076" r="5.512" paint-order="stroke fill markers"/><use href="#B" x="14.204" y="-0.093" paint-order="stroke fill markers"/><circle cx="44.622" cy="12.983" r="5.512" paint-order="stroke fill markers"/></g><g fill="none" stroke="#c8c8c8" stroke-linejoin="round"><rect width="13.791" height="20.704" x="37.726" y="3.62" ry="1.146" rx="1.095" stroke-width="1.786" paint-order="stroke fill markers"/><rect width="13.366" height="21.167" x="23.732" y="3.389" ry="1.146" rx="1.095" stroke-width="1.323" paint-order="stroke fill markers"/></g><path d="M1.845 37.494v-4.408H0v-1.572h5.587v1.572H3.69v4.408zm5.971.085q-.743 0-1.324-.308-.581-.308-.914-.837-.333-.538-.333-1.23 0-.692.333-1.222.333-.538.914-.846.581-.308 1.324-.308.743 0 1.315.308.581.308.905.846.333.53.333 1.222 0 .692-.333 1.23-.325.53-.905.837-.572.308-1.315.308zm0-1.452q.231 0 .41-.12.188-.12.29-.325.103-.214.103-.478 0-.273-.103-.478-.103-.214-.29-.333-.179-.12-.41-.12-.239 0-.427.12-.179.12-.29.333-.103.205-.103.478 0 .265.103.478.111.205.29.325.188.12.427.12zm3.408 1.367v-4.57h1.606l.068.718-.196-.068q.128-.222.29-.359.171-.145.359-.231.188-.085.384-.12.196-.034.376-.034.299 0 .564.085.265.077.478.282.214.205.359.589l-.265-.009.068-.12q.128-.222.308-.376.179-.154.393-.256.214-.102.436-.145.222-.051.427-.051.564 0 .948.214.384.214.572.632.196.41.196.999v2.819h-1.734v-2.674q0-.188-.06-.316-.06-.128-.179-.196-.111-.068-.273-.068-.128 0-.239.043-.103.034-.179.111-.068.077-.111.171-.043.094-.043.214v2.716h-1.734v-2.674q0-.188-.06-.316-.06-.128-.179-.196-.111-.068-.273-.068-.128 0-.239.043-.103.034-.179.111-.068.077-.111.171-.043.094-.043.214v2.716zm10.712.085q-.743 0-1.324-.308-.581-.308-.914-.837-.333-.538-.333-1.23 0-.692.333-1.222.333-.538.914-.846.581-.308 1.324-.308.743 0 1.315.308.581.308.905.846.333.53.333 1.222 0 .692-.333 1.23-.325.53-.905.837-.572.308-1.315.308zm0-1.452q.231 0 .41-.12.188-.12.29-.325.103-.214.103-.478 0-.273-.103-.478-.103-.214-.29-.333-.179-.12-.41-.12-.239 0-.427.12-.179.12-.29.333-.103.205-.103.478 0 .265.103.478.111.205.29.325.188.12.427.12zm5.014 1.461q-.564 0-1.008-.299-.436-.308-.692-.837-.248-.538-.248-1.239 0-.692.256-1.23.256-.538.7-.846.453-.308 1.034-.308.29 0 .555.085.265.077.478.231.214.145.359.35.154.196.205.427l-.384.12v-2.87h1.743v6.321h-1.563l-.137-1.008.35.077q-.043.222-.188.41-.145.188-.367.325-.214.137-.495.214-.282.077-.598.077zm.521-1.409q.248 0 .419-.111.179-.12.265-.333.094-.214.094-.521 0-.308-.094-.521-.085-.222-.265-.333-.171-.111-.419-.111-.248 0-.419.111-.171.111-.265.333-.085.214-.085.521 0 .308.085.521.094.214.265.333.171.111.419.111zm5.219 1.392q-.572 0-1.017-.299-.444-.308-.7-.837-.256-.538-.256-1.23 0-.7.248-1.23.256-.538.7-.837.453-.308 1.042-.308.308 0 .564.085.256.085.453.239.196.154.342.359.145.196.248.427l-.35-.009v-1.008h1.7v4.57H33.92v-1.119l.384.034q-.085.248-.239.461-.145.214-.35.367-.205.154-.461.248-.256.085-.564.085zm.495-1.409q.248 0 .419-.111.179-.111.265-.325.094-.214.094-.521 0-.308-.094-.521-.085-.222-.265-.333-.171-.111-.419-.111-.248 0-.419.111-.171.111-.265.333-.085.214-.085.521 0 .308.085.521.094.214.265.325.171.111.419.111zm5.732 1.418q-.692 0-1.239-.308-.538-.308-.854-.837-.308-.538-.308-1.23 0-.692.308-1.222.316-.538.854-.846.547-.308 1.239-.308.615 0 1.136.188.521.188.846.547l-.94 1.11q-.094-.103-.222-.188-.128-.085-.29-.128-.162-.051-.376-.051-.256 0-.453.111-.188.111-.29.316-.103.196-.103.461 0 .256.094.461.103.196.29.316.196.12.461.12.214 0 .376-.043.162-.043.29-.12.128-.085.222-.196l.931 1.119q-.316.35-.837.538-.521.188-1.136.188zm2.665-.085v-6.321h1.691v2.674l-.367.103q.094-.325.333-.572.248-.256.589-.401.342-.145.726-.145.513 0 .871.214.359.214.538.632.188.41.188.999v2.819h-1.734V34.82q0-.188-.06-.316-.06-.128-.179-.196-.12-.068-.282-.068-.128 0-.239.043-.103.034-.179.111-.077.077-.12.171-.043.094-.043.214v2.716h-.863q-.325 0-.547 0-.214 0-.325 0zm5.706 0v-4.57h1.734v4.57zm.871-5.399q-.461 0-.726-.214-.256-.214-.256-.606 0-.359.265-.589.265-.231.718-.231.461 0 .718.214.265.214.265.606 0 .359-.265.589-.265.231-.718.231zm4.271 5.484q-.675 0-1.196-.145-.513-.154-.905-.427-.384-.273-.692-.641l1.068-1.196q.427.547.888.726.47.171.88.171.162 0 .29-.026.128-.034.196-.103.068-.068.068-.188 0-.111-.077-.188-.068-.077-.188-.128-.12-.06-.265-.094-.137-.043-.273-.068-.128-.026-.231-.051-.513-.12-.897-.29-.384-.171-.641-.41-.256-.239-.384-.547-.12-.308-.12-.692 0-.436.196-.794.205-.359.538-.615.342-.256.769-.393.436-.137.897-.137.675 0 1.128.128.453.12.76.35.308.231.53.538l-1.076 1.034q-.188-.179-.393-.29-.205-.12-.427-.171-.214-.06-.427-.06-.196 0-.333.034-.137.026-.214.094-.077.06-.077.171 0 .111.094.188.103.068.248.12.154.051.299.085.154.026.256.043.47.085.863.239.393.145.683.376.299.222.453.564.162.333.162.794 0 .658-.333 1.102-.325.444-.88.675-.555.222-1.239.222zm3.297-.085v-6.321h1.691v2.674l-.367.103q.094-.325.333-.572.248-.256.589-.401.342-.145.726-.145.513 0 .871.214.359.214.538.632.188.41.188.999v2.819h-1.734V34.82q0-.188-.06-.316-.06-.128-.179-.196-.12-.068-.282-.068-.128 0-.239.043-.103.034-.179.111-.077.077-.12.171-.043.094-.043.214v2.716H56.6q-.325 0-.547 0-.214 0-.325 0zm7.312.077q-.572 0-1.017-.299-.444-.308-.7-.837-.256-.538-.256-1.23 0-.7.248-1.23.256-.538.7-.837.453-.308 1.042-.308.308 0 .564.085.256.085.453.239.196.154.342.359.145.196.248.427l-.35-.009v-1.008h1.7v4.57h-1.743v-1.119l.384.034q-.085.248-.239.461-.145.214-.35.367-.205.154-.461.248-.256.085-.564.085zm.495-1.409q.248 0 .419-.111.179-.111.265-.325.094-.214.094-.521 0-.308-.094-.521-.085-.222-.265-.333-.171-.111-.419-.111-.248 0-.419.111-.171.111-.265.333-.085.214-.085.521 0 .308.085.521.094.214.265.325.171.111.419.111zm3.673 1.333v-4.57h1.606l.102 1.52-.384-.239q.111-.393.35-.7.239-.316.572-.495.342-.179.726-.179.154 0 .29.026.137.017.265.051l-.478 1.922q-.085-.06-.273-.111-.179-.051-.393-.051-.154 0-.282.051-.12.043-.205.137-.077.094-.12.222-.043.128-.043.299v2.118zm6.236.085q-.794 0-1.367-.308-.572-.308-.88-.837-.308-.538-.308-1.23 0-.513.171-.948.171-.436.478-.752.316-.325.735-.495.427-.179.931-.179.504 0 .914.179.419.171.718.495.299.316.453.752.162.436.145.948l-.009.359h-3.579l-.196-.811h2.4l-.162.171v-.154q0-.162-.085-.282-.077-.128-.222-.196-.145-.068-.342-.068-.248 0-.419.103-.171.103-.265.29-.085.188-.085.453 0 .308.128.538.137.231.393.359.265.128.649.128.256 0 .436-.06.188-.068.393-.214l.794 1.119q-.316.248-.624.384-.299.137-.598.196-.29.06-.598.06z" fill="#ff8904" paint-order="stroke fill markers"/><defs ><path id="B" d="M35.461 24.516c0-2.307-.961-4.439-2.522-5.592s-3.483-1.153-5.044 0-2.522 3.285-2.522 5.592h5.044z"/></defs></svg>