<?xml version="1.0" encoding="UTF-8" standalone="no"?>
<!-- Created with Inkscape (http://www.inkscape.org/) -->

<svg
   width="64"
   height="63.999996"
   viewBox="0 0 16.933332 16.933332"
   version="1.1"
   id="svg1"
   xmlns="http://www.w3.org/2000/svg"
   xmlns:svg="http://www.w3.org/2000/svg">
  <defs
     id="defs1" />
  <g
     id="layer1">
    <path
       d="m 5.1060909,6.0241817 c -0.137,0.357 -0.037,0.541 0.324,0.664 l 1.196,0.44299 c 0.374,0.123 0.499,0.049 0.673,-0.33199 0.324,-0.714 0.62299,-1.046 1.28399,-1.046 0.586,0 0.86,0.295 0.86,0.701 0,0.81199 -0.685,0.98399 -1.309,1.36599 -0.536,0.32 -1.04699,0.812 -1.04699,1.98099 0,0.3810003 0.137,0.4920003 0.51099,0.4920003 h 1.122 c 0.374,0 0.511,-0.111 0.511,-0.4920003 0,-0.29499 0.187,-0.49199 0.461,-0.67699 0.7479901,-0.504 2.1939901,-0.898 2.1939901,-2.69399 0,-1.501 -1.209,-2.559 -3.2899901,-2.559 -1.93199,0 -2.96599,0.873 -3.48999,2.153 z m 3.38999,4.6869803 h -0.623 c -0.74799,0 -0.98499,0.234 -0.98499,0.96 v 0.431 c 0,0.72599 0.237,0.95999 0.98499,0.95999 h 0.623 c 0.735,0 0.972,-0.234 0.972,-0.95999 v -0.431 c 0,-0.726 -0.237,-0.96 -0.972,-0.96 z"
       fill="#ff8904"
       paint-order="stroke fill markers"
       id="path6"
       style="stroke-width:0.999996" />
  </g>
</svg>
