<svg xmlns="http://www.w3.org/2000/svg" width="265.047" height="142.054" viewBox="0 0 70.127 37.585"><rect width="32.208" height="25.562" x="18.967" y="1.191" rx="1.874" fill="#f8f8f8" stroke="#ff8904" stroke-width="2.381" paint-order="stroke fill markers"/><rect width="29.369" height="22.49" x="20.387" y="2.727" rx=".966" fill="#c8c8c8" paint-order="stroke fill markers"/><g fill="#fef3c6"><rect width="13.371" height="20.989" x="35.694" y="3.478" rx=".423" paint-order="stroke fill markers"/><rect width="13.371" height="20.989" x="21.077" y="3.478" rx=".423" paint-order="stroke fill markers"/></g><g fill="#ff8904"><use href="#B" paint-order="stroke fill markers"/><circle cx="27.762" cy="13.076" r="5.512" paint-order="stroke fill markers"/><use href="#B" x="14.204" y="-0.093" paint-order="stroke fill markers"/><circle cx="41.967" cy="12.983" r="5.512" paint-order="stroke fill markers"/></g><g fill="none" stroke="#c8c8c8" stroke-linejoin="round"><rect width="13.791" height="20.704" x="35.071" y="3.62" ry="1.146" rx="1.095" stroke-width="1.786" paint-order="stroke fill markers"/><rect width="13.366" height="21.167" x="21.077" y="3.389" ry="1.146" rx="1.095" stroke-width="1.323" paint-order="stroke fill markers"/></g><path d="M2.47 36.706v-4.005H.794v-1.428H5.87v1.428H4.147v4.005zm5.425.078q-.675 0-1.203-.279-.528-.279-.83-.761-.303-.489-.303-1.118 0-.629.303-1.11.303-.489.83-.768.528-.279 1.203-.279.675 0 1.195.279.528.279.823.768.303.481.303 1.11 0 .629-.303 1.118-.295.481-.823.761-.52.279-1.195.279zm0-1.319q.21 0 .373-.109.171-.109.264-.295.093-.194.093-.435 0-.248-.093-.435-.093-.194-.264-.303-.163-.109-.373-.109-.217 0-.388.109-.163.109-.264.303-.093.186-.093.435 0 .241.093.435.101.186.264.295.171.109.388.109zm3.097 1.242v-4.152h1.459l.062.652-.179-.062q.116-.202.264-.326.155-.132.326-.21.171-.078.349-.109.179-.031.341-.031.272 0 .512.078.241.07.435.256.194.186.326.536l-.241-.008.062-.109q.116-.202.279-.341.163-.14.357-.233.194-.093.396-.132.202-.047.388-.047.512 0 .861.194.349.194.52.574.179.373.179.908v2.561h-1.576v-2.429q0-.171-.054-.287-.054-.116-.163-.179-.101-.062-.248-.062-.116 0-.217.039-.093.031-.163.101-.062.07-.101.155-.039.085-.039.194v2.468h-1.576v-2.429q0-.171-.054-.287-.054-.116-.163-.179-.101-.062-.248-.062-.116 0-.217.039-.093.031-.163.101-.062.07-.101.155-.039.085-.039.194v2.468zm9.732.078q-.675 0-1.203-.279-.528-.279-.83-.761-.303-.489-.303-1.118 0-.629.303-1.11.303-.489.83-.768.528-.279 1.203-.279.675 0 1.195.279.528.279.823.768.303.481.303 1.11 0 .629-.303 1.118-.295.481-.823.761-.52.279-1.195.279zm0-1.319q.21 0 .373-.109.171-.109.264-.295.093-.194.093-.435 0-.248-.093-.435-.093-.194-.264-.303-.163-.109-.373-.109-.217 0-.388.109-.163.109-.264.303-.093.186-.093.435 0 .241.093.435.101.186.264.295.171.109.388.109zm4.556 1.327q-.512 0-.916-.272-.396-.279-.629-.761-.225-.489-.225-1.125 0-.629.233-1.118.233-.489.636-.768.411-.279.939-.279.264 0 .504.078.241.07.435.21.194.132.326.318.14.179.186.388l-.349.109v-2.608h1.583v5.743h-1.42l-.124-.916.318.07q-.039.202-.171.373-.132.171-.334.295-.194.124-.45.194-.256.07-.543.07zm.473-1.281q.225 0 .38-.101.163-.109.241-.303.085-.194.085-.473 0-.279-.085-.473-.078-.202-.241-.303-.155-.101-.38-.101-.225 0-.38.101-.155.101-.241.303-.078.194-.078.473 0 .279.078.473.085.194.241.303.155.101.38.101zm4.742 1.265q-.52 0-.924-.272-.404-.279-.636-.761-.233-.489-.233-1.118 0-.636.225-1.118.233-.489.636-.761.411-.279.947-.279.279 0 .512.078.233.078.411.217.179.14.31.326.132.179.225.388l-.318-.008v-.916h1.544v4.152h-1.583v-1.017l.349.031q-.078.225-.217.419-.132.194-.318.334-.186.14-.419.225-.233.078-.512.078zm.45-1.281q.225 0 .38-.101.163-.101.241-.295.085-.194.085-.473 0-.279-.085-.473-.078-.202-.241-.303-.155-.101-.38-.101-.225 0-.38.101-.155.101-.241.303-.078.194-.078.473 0 .279.078.473.085.194.241.295.155.101.38.101zm5.208 1.288q-.629 0-1.125-.279-.489-.279-.776-.761-.279-.489-.279-1.118 0-.629.279-1.11.287-.489.776-.768.497-.279 1.125-.279.559 0 1.032.171.473.171.768.497l-.854 1.009q-.085-.093-.202-.171-.116-.078-.264-.116-.147-.047-.341-.047-.233 0-.411.101-.171.101-.264.287-.093.179-.093.419 0 .233.085.419.093.179.264.287.178.109.419.109.194 0 .341-.039.147-.039.264-.109.116-.078.202-.179l.846 1.017q-.287.318-.761.489-.473.171-1.032.171zm2.421-.078v-5.743h1.537v2.429l-.334.093q.085-.295.303-.52.225-.233.536-.365.31-.132.66-.132.466 0 .792.194.326.194.489.574.171.373.171.908v2.561h-1.576v-2.429q0-.171-.054-.287-.054-.116-.163-.179-.109-.062-.256-.062-.116 0-.217.039-.093.031-.163.101-.07.07-.109.155-.039.085-.039.194v2.468h-.784q-.295 0-.497 0-.194 0-.295 0zm5.184 0v-4.152h1.576v4.152zm.792-4.905q-.419 0-.66-.194-.233-.194-.233-.551 0-.326.241-.536.241-.21.652-.21.419 0 .652.194.241.194.241.551 0 .326-.241.536-.241.21-.652.21zm3.881 4.983q-.613 0-1.087-.132-.466-.14-.823-.388-.349-.248-.629-.582l.97-1.087q.388.497.807.66.427.155.799.155.147 0 .264-.023.116-.031.178-.093.062-.062.062-.171 0-.101-.07-.171-.062-.07-.171-.116-.109-.054-.241-.085-.124-.039-.248-.062-.116-.023-.21-.047-.466-.109-.815-.264-.349-.155-.582-.373-.233-.217-.349-.497-.109-.279-.109-.629 0-.396.179-.722.186-.326.489-.559.31-.233.698-.357.396-.124.815-.124.613 0 1.024.116.411.109.691.318.279.21.481.489l-.978.939q-.171-.163-.357-.264-.186-.109-.388-.155-.194-.054-.388-.054-.178 0-.303.031-.124.023-.194.085-.07.054-.07.155 0 .101.085.171.093.062.225.109.14.047.272.078.14.023.233.039.427.078.784.217.357.132.621.341.272.202.411.512.147.303.147.722 0 .598-.303 1.001-.295.404-.799.613-.504.202-1.125.202zm2.996-.078v-5.743h1.537v2.429l-.334.093q.085-.295.303-.52.225-.233.536-.365.31-.132.66-.132.466 0 .792.194.326.194.489.574.171.373.171.908v2.561h-1.576v-2.429q0-.171-.054-.287-.054-.116-.163-.179-.109-.062-.256-.062-.116 0-.217.039-.093.031-.163.101-.07.07-.109.155-.039.085-.039.194v2.468h-.784q-.295 0-.497 0-.194 0-.295 0zm6.644.07q-.52 0-.924-.272-.404-.279-.636-.761-.233-.489-.233-1.118 0-.636.225-1.118.233-.489.636-.761.411-.279.947-.279.279 0 .512.078.233.078.411.217.179.14.31.326.132.179.225.388l-.318-.008v-.916h1.544v4.152h-1.583v-1.017l.349.031q-.078.225-.217.419-.132.194-.318.334-.186.14-.419.225-.233.078-.512.078zm.45-1.281q.225 0 .38-.101.163-.101.241-.295.085-.194.085-.473 0-.279-.085-.473-.078-.202-.241-.303-.155-.101-.38-.101-.225 0-.38.101-.155.101-.241.303-.078.194-.078.473 0 .279.078.473.085.194.241.295.155.101.38.101zm3.337 1.211v-4.152h1.459l.093 1.381-.349-.217q.101-.357.318-.636.217-.287.52-.45.31-.163.66-.163.14 0 .264.023.124.016.241.047l-.435 1.746q-.078-.054-.248-.101-.163-.047-.357-.047-.14 0-.256.047-.109.039-.186.124-.07.085-.109.202-.039.116-.039.272v1.925zm5.666.078q-.722 0-1.242-.279-.52-.279-.799-.761-.279-.489-.279-1.118 0-.466.155-.861.155-.396.435-.683.287-.295.667-.45.388-.163.846-.163.458 0 .83.163.38.155.652.45.272.287.411.683.147.396.132.861l-.008.326h-3.252l-.179-.737h2.181l-.147.155v-.14q0-.147-.078-.256-.07-.116-.202-.179-.132-.062-.31-.062-.225 0-.38.093-.155.093-.241.264-.078.171-.078.411 0 .279.116.489.124.21.357.326.241.116.59.116.233 0 .396-.054.171-.062.357-.194l.722 1.017q-.287.225-.567.349-.272.124-.543.179-.264.054-.543.054z" fill="#f8f8f8" stroke="#ff8904" stroke-width="1.588" stroke-linejoin="round" paint-order="stroke fill markers"/><defs ><path id="B" d="M32.806 24.516c0-2.307-.961-4.439-2.522-5.592s-3.483-1.153-5.044 0-2.522 3.285-2.522 5.592h5.044z"/></defs></svg>