<svg xmlns="http://www.w3.org/2000/svg" width="64" height="64" viewBox="0 0 16.933 16.933"><path d="M5.106 6.024c-.137.357-.037.541.324.664l1.196.443c.374.123.499.049.673-.332.324-.714.623-1.046 1.284-1.046.586 0 .86.295.86.701 0 .812-.685.984-1.309 1.366-.536.32-1.047.812-1.047 1.981 0 .381.137.492.511.492H8.72c.374 0 .511-.111.511-.492 0-.295.187-.492.461-.677.748-.504 2.194-.898 2.194-2.694 0-1.501-1.209-2.559-3.29-2.559-1.932 0-2.966.873-3.49 2.153zm3.39 4.687h-.623c-.748 0-.985.234-.985.96v.431c0 .726.237.96.985.96h.623c.735 0 .972-.234.972-.96v-.431c0-.726-.237-.96-.972-.96z" fill="#ff8904" paint-order="stroke fill markers"/></svg>